<svg width="512" height="512" viewBox="0 0 512 512" fill="none" xmlns="http://www.w3.org/2000/svg" role="img" aria-labelledby="title desc">
  <title id="title">BlockEstate icon</title>
  <desc id="desc">Geometric app icon with building and blockchain links in blue, white, and gold.</desc>

  <rect width="512" height="512" rx="96" fill="#0B2A6F"/>

  <rect x="148" y="126" width="216" height="262" rx="30" fill="#FFFFFF"/>
  <rect x="206" y="88" width="100" height="56" rx="16" fill="#F3C64E"/>

  <rect x="176" y="168" width="24" height="24" rx="5" fill="#0B2A6F"/>
  <rect x="216" y="168" width="24" height="24" rx="5" fill="#0B2A6F"/>
  <rect x="256" y="168" width="24" height="24" rx="5" fill="#0B2A6F"/>
  <rect x="296" y="168" width="24" height="24" rx="5" fill="#0B2A6F"/>

  <rect x="176" y="208" width="24" height="24" rx="5" fill="#0B2A6F"/>
  <rect x="216" y="208" width="24" height="24" rx="5" fill="#0B2A6F"/>
  <rect x="256" y="208" width="24" height="24" rx="5" fill="#0B2A6F"/>
  <rect x="296" y="208" width="24" height="24" rx="5" fill="#0B2A6F"/>

  <rect x="176" y="248" width="24" height="24" rx="5" fill="#0B2A6F"/>
  <rect x="216" y="248" width="24" height="24" rx="5" fill="#0B2A6F"/>
  <rect x="256" y="248" width="24" height="24" rx="5" fill="#0B2A6F"/>
  <rect x="296" y="248" width="24" height="24" rx="5" fill="#0B2A6F"/>

  <rect x="228" y="304" width="56" height="84" rx="10" fill="#0B2A6F"/>

  <rect x="70" y="170" width="44" height="44" rx="10" fill="#F3C64E"/>
  <rect x="398" y="170" width="44" height="44" rx="10" fill="#F3C64E"/>
  <rect x="70" y="254" width="44" height="44" rx="10" fill="#F3C64E"/>
  <rect x="398" y="254" width="44" height="44" rx="10" fill="#F3C64E"/>

  <line x1="114" y1="192" x2="148" y2="192" stroke="#F3C64E" stroke-width="12" stroke-linecap="round"/>
  <line x1="364" y1="192" x2="398" y2="192" stroke="#F3C64E" stroke-width="12" stroke-linecap="round"/>
  <line x1="114" y1="276" x2="148" y2="276" stroke="#F3C64E" stroke-width="12" stroke-linecap="round"/>
  <line x1="364" y1="276" x2="398" y2="276" stroke="#F3C64E" stroke-width="12" stroke-linecap="round"/>
</svg>
