<svg width="960" height="280" viewBox="0 0 960 280" fill="none" xmlns="http://www.w3.org/2000/svg" role="img" aria-labelledby="title desc">
  <title id="title">BlockEstate logo</title>
  <desc id="desc">Minimal geometric logo combining a building and blockchain links in blue and gold.</desc>

  <rect x="0" y="0" width="960" height="280" rx="28" fill="#F8FAFF"/>

  <g transform="translate(46 40)">
    <rect x="0" y="0" width="200" height="200" rx="32" fill="#0B2A6F"/>

    <rect x="56" y="48" width="88" height="108" rx="10" fill="#FFFFFF"/>
    <rect x="80" y="32" width="40" height="22" rx="6" fill="#F3C64E"/>

    <rect x="68" y="66" width="12" height="12" rx="2" fill="#0B2A6F"/>
    <rect x="88" y="66" width="12" height="12" rx="2" fill="#0B2A6F"/>
    <rect x="108" y="66" width="12" height="12" rx="2" fill="#0B2A6F"/>

    <rect x="68" y="86" width="12" height="12" rx="2" fill="#0B2A6F"/>
    <rect x="88" y="86" width="12" height="12" rx="2" fill="#0B2A6F"/>
    <rect x="108" y="86" width="12" height="12" rx="2" fill="#0B2A6F"/>

    <rect x="68" y="106" width="12" height="12" rx="2" fill="#0B2A6F"/>
    <rect x="88" y="106" width="12" height="12" rx="2" fill="#0B2A6F"/>
    <rect x="108" y="106" width="12" height="12" rx="2" fill="#0B2A6F"/>

    <rect x="86" y="130" width="28" height="26" rx="4" fill="#0B2A6F"/>

    <rect x="24" y="72" width="18" height="18" rx="4" fill="#F3C64E"/>
    <rect x="158" y="72" width="18" height="18" rx="4" fill="#F3C64E"/>
    <rect x="24" y="112" width="18" height="18" rx="4" fill="#F3C64E"/>
    <rect x="158" y="112" width="18" height="18" rx="4" fill="#F3C64E"/>

    <line x1="42" y1="81" x2="56" y2="81" stroke="#F3C64E" stroke-width="6" stroke-linecap="round"/>
    <line x1="144" y1="81" x2="158" y2="81" stroke="#F3C64E" stroke-width="6" stroke-linecap="round"/>
    <line x1="42" y1="121" x2="56" y2="121" stroke="#F3C64E" stroke-width="6" stroke-linecap="round"/>
    <line x1="144" y1="121" x2="158" y2="121" stroke="#F3C64E" stroke-width="6" stroke-linecap="round"/>
  </g>

  <g transform="translate(290 0)">
    <text x="0" y="138" fill="#0B2A6F" font-family="Montserrat, Poppins, Segoe UI, Arial, sans-serif" font-size="88" font-weight="800" letter-spacing="0.5">Block</text>
    <text x="260" y="138" fill="#C7951D" font-family="Montserrat, Poppins, Segoe UI, Arial, sans-serif" font-size="88" font-weight="800" letter-spacing="0.5">Estate</text>
    <rect x="0" y="164" width="530" height="10" rx="5" fill="#D9E5FF"/>
    <text x="0" y="214" fill="#274A95" font-family="Montserrat, Poppins, Segoe UI, Arial, sans-serif" font-size="28" font-weight="600" letter-spacing="2.2">BLOCKCHAIN REAL ESTATE PLATFORM</text>
  </g>
</svg>
